<svg width="15" height="28" viewBox="0 0 15 28" fill="none" xmlns="http://www.w3.org/2000/svg">
<path d="M4.0051 10.3573C4.0051 10.3573 5.13679 8.88469 4.4049 6.83953C3.67045 4.79567 1.96015 4.01939 1.96015 4.01939C1.96015 4.01939 0.680294 5.7744 1.39558 7.76669C2.10959 9.76026 4.0051 10.3573 4.0051 10.3573ZM7.14598 11.4031C7.14598 11.4031 9.12452 11.2432 10.2575 9.45723C11.3904 7.67255 10.5244 5.6764 10.5244 5.6764C10.5244 5.6764 8.68768 6.05294 7.52406 7.88532C6.36172 9.71642 7.14598 11.4031 7.14598 11.4031ZM7.34652 13.7629C6.43069 15.732 7.42571 17.3026 7.42571 17.3026C7.42571 17.3026 9.36848 16.8822 10.26 14.9647C11.1503 13.0446 10.034 11.18 10.034 11.18C10.034 11.18 8.26234 11.7938 7.34652 13.7629ZM11.8183 15.349C11.8183 15.349 10.1106 16.1304 9.38253 18.1756C8.65447 20.2246 9.78999 21.6921 9.78999 21.6921C9.78999 21.6921 11.6829 21.0899 12.3931 19.095C13.102 17.1001 11.8183 15.349 11.8183 15.349ZM13.2413 26.1189C13.2413 26.1189 14.8839 24.9906 14.995 22.8745C15.1048 20.7572 13.3741 19.4548 13.3741 19.4548C13.3741 19.4548 11.9614 20.6991 11.8477 22.8707C11.7353 25.0409 13.2413 26.1189 13.2413 26.1189ZM6.52777 6.41658C6.52777 6.41658 8.27894 5.82598 8.79242 3.71506C9.30717 1.60414 8.31216 0 8.31216 0C8.31216 0 6.2838 0.742755 5.78183 2.80209C5.28112 4.86014 6.52777 6.41658 6.52777 6.41658ZM4.00383 14.8461C4.00383 14.8461 4.65397 13.1014 3.35751 11.367C2.0585 9.63131 0.198752 9.39791 0.198752 9.39791C0.198752 9.39791 -0.511426 11.456 0.7531 13.1478C2.01763 14.8409 4.00383 14.8461 4.00383 14.8461ZM5.45484 19.4496C5.45484 19.4496 5.70391 17.603 4.05875 16.2026C2.41103 14.8009 0.546177 14.9918 0.546177 14.9918C0.546177 14.9918 0.306045 17.1582 1.91033 18.5237C3.51717 19.888 5.45484 19.4496 5.45484 19.4496ZM7.66456 23.2562C7.66456 23.2562 7.35163 21.42 5.36159 20.5895C3.37029 19.7565 1.65104 20.5083 1.65104 20.5083C1.65104 20.5083 2.07255 22.6463 4.01149 23.4587C5.95043 24.2672 7.66456 23.2562 7.66456 23.2562ZM8.6302 24.8372C6.55587 24.2517 4.93625 25.2047 4.93625 25.2047C4.93625 25.2047 5.60684 27.2756 7.62752 27.8469C9.65077 28.4181 11.2321 27.2073 11.2321 27.2073C11.2321 27.2073 10.7045 25.4213 8.6302 24.8372Z" fill="#E99F69"/>
</svg>
