<svg width="154" height="104" viewBox="0 0 154 104" fill="none" xmlns="http://www.w3.org/2000/svg">
<g clip-path="url(#clip0_24542_16231)">
<path d="M107.652 35.4085C107.652 35.4598 107.652 35.524 107.639 35.5624C107.573 36.0626 107.573 36.5629 107.612 37.0759C107.639 37.2042 107.665 37.3324 107.77 37.435C107.94 37.6274 108.203 37.5889 108.308 37.3581C108.36 37.2426 108.36 37.1272 108.334 37.0118C108.203 36.5244 108.176 36.0113 108.163 35.5111C108.163 35.4855 108.163 35.447 108.163 35.4085C108.308 35.3957 108.439 35.3829 108.557 35.3829C108.649 35.37 108.727 35.3572 108.793 35.3187C108.99 35.2161 108.99 34.9981 108.78 34.8955C108.701 34.857 108.596 34.8442 108.504 34.8442C108.176 34.857 107.849 34.857 107.521 34.857C107.403 34.857 107.284 34.8698 107.166 34.8827C107.101 34.8955 107.022 34.8955 106.97 34.934C106.878 34.9724 106.825 35.0366 106.825 35.1263C106.838 35.2161 106.878 35.2674 106.97 35.3059C107.022 35.3444 107.088 35.3572 107.153 35.3572C107.311 35.37 107.481 35.3957 107.652 35.4085ZM111.259 35.9985C111.259 36.0113 111.272 36.0242 111.272 36.0242C111.325 36.3705 111.377 36.7039 111.417 37.0374C111.43 37.1528 111.443 37.2555 111.522 37.3452C111.692 37.5633 111.954 37.5376 112.072 37.3068C112.125 37.1913 112.138 37.0759 112.112 36.9476C112.033 36.5629 111.994 36.1781 111.915 35.8061C111.863 35.5753 111.797 35.3572 111.731 35.152C111.692 35.0237 111.6 34.934 111.443 34.9211C111.285 34.8955 111.167 34.9724 111.102 35.0879C111.023 35.1905 110.957 35.2931 110.905 35.4085C110.813 35.6137 110.734 35.819 110.63 36.0113C110.616 36.0626 110.603 36.1011 110.577 36.1396C110.564 36.1139 110.551 36.1011 110.551 36.1011C110.38 35.7805 110.223 35.4598 110.052 35.152C110.026 35.1263 110.013 35.1007 110 35.075C109.921 34.9596 109.829 34.8955 109.685 34.8955C109.554 34.9083 109.449 34.9853 109.383 35.1007C109.357 35.152 109.357 35.1905 109.344 35.2418C109.291 35.6522 109.226 36.0626 109.173 36.4731C109.147 36.7039 109.134 36.9348 109.134 37.1657C109.121 37.217 109.134 37.2811 109.16 37.3324C109.187 37.435 109.265 37.4992 109.37 37.512C109.501 37.5248 109.593 37.4863 109.633 37.3837C109.672 37.3068 109.685 37.2426 109.698 37.1785C109.751 36.9476 109.79 36.7296 109.829 36.5116C109.856 36.3833 109.869 36.2807 109.908 36.1396C109.934 36.1909 109.96 36.2294 109.987 36.2679C110.105 36.4218 110.223 36.5757 110.367 36.7039C110.511 36.8065 110.63 36.7937 110.748 36.6783C110.774 36.6526 110.787 36.6398 110.813 36.6142C110.931 36.4346 111.076 36.255 111.194 36.0755C111.22 36.0498 111.233 36.0242 111.259 35.9985Z" fill="#172423"/>
<path d="M81.0337 35.6605C80.9425 35.9043 80.9251 36.0799 80.9672 36.2258C81.0137 36.4243 81.1344 36.4893 81.2982 36.4388C82.839 36.0663 86.2177 37.1237 87.4686 37.4184C87.7636 37.4803 88.0036 37.1079 87.8023 36.7741C87.5085 36.4508 84.1313 35.0666 82.8427 34.9911C82.3376 34.9632 81.4346 34.8366 81.0337 35.6605Z" fill="#172423"/>
<path d="M94.2383 31.1798C94.4025 31.2725 94.4943 31.3609 94.5396 31.4597C94.6071 31.5892 94.5715 31.6789 94.4581 31.7246C93.4396 32.2106 92.0843 34.303 91.5372 35.0247C91.4046 35.1907 91.0987 35.0942 91.0525 34.8212C91.062 34.5125 92.2634 32.2418 92.9339 31.6233C93.1974 31.3819 93.6327 30.9081 94.2383 31.1798Z" fill="#172423"/>
<path d="M86.1273 30.1498C86.3246 30.0044 86.5296 29.9535 86.6343 30.048C88.171 31.3329 88.9859 33.3677 89.4905 35.2306C89.5095 35.274 89.5107 35.3362 89.4955 35.4012C89.4892 35.4567 89.4477 35.5154 89.3818 35.5608C89.3114 35.6109 89.2508 35.6262 89.2223 35.583C88.5488 34.6873 84.7021 31.2024 86.1273 30.1498Z" fill="#172423"/>
<path d="M53.586 52.4276C53.9543 52.1595 54.3547 51.9363 54.7784 51.7631C55.2217 51.6392 55.6942 51.6597 56.1245 51.8217C56.5547 51.9837 56.9194 52.2782 57.1632 52.6608C57.3813 53.0424 57.4666 53.483 57.4064 53.9162C57.3462 54.3493 57.1437 54.7516 56.8293 55.0625C56.5856 55.3145 56.3089 55.534 56.0066 55.7154C54.6592 56.5665 53.2998 57.3709 51.9405 58.222C51.6623 58.435 51.3672 58.6261 51.0581 58.7933C50.5878 59.0226 50.0504 59.084 49.5387 58.9669C49.027 58.8499 48.5733 58.5616 48.2559 58.1521C48.0187 57.8621 47.8185 57.545 47.6597 57.2077C46.3719 54.5612 45.0364 51.9263 43.7963 49.2331C43.2239 48.0673 42.7589 46.7265 42.3058 45.4324C42.1098 45.0564 42.0715 44.6205 42.1991 44.2173C42.3267 43.8141 42.6102 43.4755 42.9892 43.2735C43.3682 43.0715 43.8128 43.0221 44.2286 43.1357C44.6443 43.2493 44.9983 43.517 45.2153 43.8818C45.8822 44.7484 46.4726 45.6689 46.98 46.6333C48.2678 48.965 49.496 51.2967 50.7361 53.5585C50.8083 53.6835 50.888 53.8041 50.9746 53.9199C51.908 53.5362 52.7859 53.0345 53.586 52.4276Z" fill="#172423"/>
<path d="M66.9011 51.6142C63.9559 54.9835 59.0193 54.1324 56.5391 49.7954C54.7743 46.7175 54.4643 41.6343 58.3039 38.4282C59.1238 37.7569 60.1042 37.2997 61.1537 37.0991C62.4405 36.9187 63.7527 37.1407 64.9027 37.7332C66.0527 38.3258 66.9817 39.2587 67.557 40.3985C69.6556 44.1293 69.3575 48.886 66.9011 51.6142ZM65.7087 43.7562C65.3958 42.8394 64.7681 42.0567 63.932 41.541C63.4589 41.2113 62.884 41.051 62.3042 41.0871C61.7243 41.1232 61.1749 41.3535 60.7483 41.7392C59.0432 43.2199 58.6854 46.7292 59.9255 48.8161C60.0836 49.1564 60.3157 49.4588 60.6058 49.7022C60.8959 49.9456 61.2369 50.1241 61.6049 50.2251C61.9729 50.3262 62.359 50.3474 62.7363 50.2873C63.1136 50.2271 63.4728 50.0871 63.789 49.877C64.7133 49.1763 65.3914 48.2115 65.729 47.1167C66.0667 46.0218 66.0471 44.8513 65.673 43.7679L65.7087 43.7562Z" fill="#172423"/>
<path d="M78.9205 45.2252C78.619 45.2886 78.3075 45.2924 78.0044 45.2363C77.7014 45.1802 77.4128 45.0655 77.1558 44.8988C76.9309 44.773 76.7373 44.6001 76.5889 44.3924C76.4406 44.1847 76.3412 43.9475 76.2979 43.6977C76.2545 43.448 76.2684 43.192 76.3383 42.9481C76.4083 42.7042 76.5328 42.4785 76.7027 42.2872C76.9987 41.9028 77.4189 41.6276 77.8951 41.5061C79.1384 41.1533 80.4183 40.9382 81.7108 40.8649C81.9948 40.8326 82.2825 40.8561 82.557 40.934C82.8316 41.012 83.0874 41.1427 83.3096 41.3187C83.5317 41.4946 83.7157 41.7122 83.8507 41.9586C83.9856 42.205 84.0689 42.4753 84.0956 42.7536C84.4682 44.1206 84.509 45.5539 84.2148 46.9391C83.1417 51.416 79.4452 52.9549 75.2956 51.5209C74.1308 51.1375 73.1095 50.4231 72.3623 49.469C71.3657 48.32 70.6591 46.9583 70.2994 45.4934C70.008 44.1889 70.0399 42.8353 70.3926 41.5454C70.7452 40.2555 71.4083 39.0668 72.3265 38.0785C73.1979 37.0043 74.3289 36.1589 75.6176 35.6185C76.4319 35.1796 77.3848 35.0548 78.2886 35.2687C78.4936 35.3242 78.6797 35.4323 78.8276 35.5818C78.9755 35.7313 79.0798 35.9168 79.1297 36.119C79.1796 36.3212 79.1732 36.5328 79.1113 36.7318C79.0493 36.9308 78.9341 37.1099 78.7775 37.2507C78.4797 37.5142 78.1562 37.7485 77.8116 37.9502C76.7515 38.6103 75.829 39.4608 75.0929 40.4568C74.6104 41.1013 74.2781 41.8414 74.1195 42.6249C73.9608 43.4084 73.9797 44.2164 74.1748 44.9921C74.4452 46.0497 75.0453 46.999 75.8918 47.7085C78.5151 50.0403 81.9254 47.7901 81.3292 44.6073C80.4588 44.8172 79.6956 45.0387 78.9205 45.2252Z" fill="#172423"/>
<path d="M94.9467 51.8007C91.0714 54.1325 86.6595 51.8007 85.6936 46.9041C84.9901 43.4065 86.3256 38.5098 90.9999 36.6444C91.9944 36.2561 93.0731 36.1197 94.1359 36.248C95.4128 36.4766 96.5842 37.0912 97.4848 38.0053C98.3854 38.9193 98.97 40.0867 99.1559 41.3429C99.9429 45.505 98.1543 49.947 94.9467 51.8007ZM96.2942 43.9544C96.293 42.9859 95.9426 42.0487 95.3045 41.3079C94.9634 40.8497 94.4703 40.5214 93.9093 40.3789C93.3482 40.2365 92.7541 40.2887 92.228 40.5268C90.1294 41.4128 88.6508 44.6306 89.1874 46.9974C89.2284 47.3688 89.3518 47.727 89.5491 48.0469C89.7464 48.3668 90.0128 48.6407 90.3297 48.8495C90.6465 49.0582 91.0062 49.1968 91.3835 49.2555C91.7609 49.3141 92.1468 49.2915 92.5142 49.1892C93.6235 48.8103 94.584 48.1022 95.2616 47.1637C95.9393 46.2252 96.3003 45.1032 96.2942 43.9544Z" fill="#172423"/>
<path d="M103.075 52.7801C103.016 53.2068 102.787 53.5933 102.437 53.8546C102.087 54.1158 101.645 54.2305 101.209 54.1733C100.772 54.1161 100.377 53.8917 100.11 53.5495C99.8426 53.2074 99.7254 52.7754 99.7839 52.3487C99.8424 51.922 100.072 51.5355 100.422 51.2742C100.772 51.0129 101.214 50.8983 101.65 50.9555C102.086 51.0127 102.482 51.237 102.749 51.5792C103.016 51.9214 103.133 52.3534 103.075 52.7801ZM102.037 37.0525C102.264 36.7138 102.597 36.4559 102.986 36.3173C103.375 36.1786 103.799 36.1666 104.196 36.283C104.599 36.3816 104.955 36.6126 105.205 36.9373C105.454 37.2621 105.582 37.6608 105.567 38.0668C105.514 38.7179 105.415 39.3647 105.269 40.0021C104.875 42.159 104.494 44.3158 104.077 46.4494C103.886 47.3005 103.635 48.1166 103.361 48.9793C103.266 49.249 103.106 49.4927 102.896 49.6905C102.765 49.8393 102.598 49.9534 102.411 50.0223C102.223 50.0913 102.02 50.1128 101.822 50.0849C101.623 50.057 101.435 49.9806 101.275 49.8628C101.115 49.7449 100.987 49.5894 100.905 49.4107C100.763 49.0901 100.686 48.7456 100.678 48.3964C100.678 46.9507 100.678 45.4934 100.774 44.036C100.936 41.9562 101.254 39.8909 101.727 37.8569C101.783 37.5844 101.888 37.3238 102.037 37.0874V37.0525Z" fill="#172423"/>
<path fill-rule="evenodd" clip-rule="evenodd" d="M48.5481 62.1488C48.4073 62.4561 48.3687 62.7987 48.4375 63.1284C48.4833 63.563 48.5838 63.9905 48.7368 64.4011C48.9278 64.9039 49.1416 65.4011 49.4052 66.0139C49.4658 66.1549 49.5291 66.3021 49.5954 66.457C49.9508 67.2872 50.3968 68.3482 50.9916 69.8837C51.16 70.3199 51.3095 70.7597 51.4601 71.2025C51.5209 71.3814 51.5819 71.5609 51.6444 71.7408C51.8684 72.3804 52.2537 72.955 52.7645 73.4104C52.9814 73.6607 53.2691 73.8431 53.5917 73.9343C53.9206 74.0273 54.2704 74.0214 54.5958 73.9174C54.9212 73.8133 55.207 73.6159 55.4161 73.3508C55.6211 73.0909 55.743 72.7777 55.7667 72.4505C55.8997 71.8131 55.8543 71.1522 55.6351 70.5377C55.2872 69.5174 54.8909 68.4956 54.4339 67.4962L54.4318 67.4918C53.68 65.9282 52.9158 64.3754 52.1155 62.822L52.1095 62.8111C51.8752 62.4064 51.5707 62.0446 51.2097 61.742C50.9753 61.4719 50.652 61.2897 50.295 61.2269C49.9304 61.1628 49.5544 61.2274 49.2341 61.4093C48.931 61.5785 48.6908 61.8374 48.5481 62.1488Z" fill="#172423"/>
<path fill-rule="evenodd" clip-rule="evenodd" d="M60.0307 58.2986C58.8519 58.0001 57.6208 57.9566 56.4232 58.1712C55.4956 58.2605 54.5833 58.4697 53.9498 58.8841C53.6276 59.095 53.3671 59.3658 53.2222 59.71C53.0765 60.0561 53.0579 60.4519 53.1773 60.8929C53.3953 61.7007 53.6784 62.4861 53.9605 63.269L54.0062 63.3958L54.0073 63.3986C54.8567 65.673 55.7142 67.9397 56.5795 70.1986C56.6804 70.5546 56.8231 70.898 57.0047 71.2219L57.0081 71.2279C57.248 71.6303 57.5557 71.9902 57.9182 72.2925C58.0995 72.4587 58.3237 72.5737 58.5668 72.6251C58.8123 72.6769 59.0676 72.6619 59.3049 72.5815C59.5423 72.5012 59.7525 72.3587 59.9127 72.1695C60.0703 71.9834 60.1735 71.7592 60.2114 71.5206C60.3678 70.8724 60.3177 70.1929 60.0677 69.5733C59.9897 69.3648 59.9285 69.1517 59.864 68.9274C59.8425 68.8526 59.8207 68.7765 59.7977 68.699C61.7784 67.942 63.8859 66.9241 64.627 64.5561C64.9172 63.7378 64.9414 62.8517 64.6962 62.0193C64.4508 61.186 63.9473 60.4474 63.2551 59.9052C62.313 59.1462 61.2125 58.5978 60.0307 58.2986ZM56.7632 61.2031C56.8022 61.1921 56.8415 61.1819 56.8809 61.1724C58.1704 60.9742 59.4897 61.2383 60.5959 61.9159C61.0834 62.2474 61.2831 62.6157 61.3174 62.9701C61.3528 63.335 61.2171 63.7304 60.9445 64.1105C60.4294 64.8285 59.4894 65.4032 58.6403 65.5103C58.0213 64.1165 57.3927 62.6663 56.7632 61.2031Z" fill="#172423"/>
<path d="M67.8896 55.7473C69.2934 55.1134 71.0323 55.0039 72.393 55.4496C72.7357 55.5472 73.033 55.7583 73.2341 56.0468C73.4339 56.3335 73.5261 56.679 73.4953 57.0244C73.4933 57.2486 73.437 57.4692 73.3311 57.6682C73.2233 57.8708 73.0672 58.045 72.876 58.1762C72.6848 58.3073 72.4641 58.3916 72.2326 58.4217C72.001 58.4519 71.7655 58.4271 71.5458 58.3494L71.5291 58.3435L71.5134 58.3354C71.401 58.2779 71.2816 58.2346 71.1581 58.2064L71.1503 58.2047C70.1931 57.9561 69.2902 58.368 68.9604 58.8741C68.8031 59.1154 68.7836 59.359 68.9146 59.5806C69.0549 59.8179 69.399 60.0842 70.0953 60.274C70.2868 60.3254 70.4831 60.375 70.6822 60.4254C71.2328 60.5648 71.805 60.7096 72.3583 60.9103L72.3604 60.9111C74.913 61.8607 75.8635 63.8274 75.5381 65.6772C75.2162 67.5065 73.6537 69.1713 71.304 69.564C70.449 69.7493 69.5592 69.7132 68.7227 69.4593C67.8841 69.2046 67.1282 68.7399 66.5301 68.1111L66.5145 68.0947C66.3257 67.8578 66.1987 67.5795 66.1424 67.2842C66.0906 67.0177 66.1179 66.7423 66.2209 66.4904C66.3233 66.24 66.4965 66.0233 66.72 65.8654C66.9561 65.6864 67.2407 65.579 67.5386 65.5566C67.8355 65.5343 68.1326 65.5974 68.3933 65.738C68.6537 65.861 68.8959 66.0179 69.1133 66.2045L69.1174 66.2079C69.502 66.5518 69.9673 66.6414 70.4135 66.5584C70.8662 66.4742 71.2919 66.2123 71.5657 65.8648C71.8377 65.5195 71.9469 65.1093 71.8173 64.7111C71.6869 64.31 71.2948 63.8606 70.4333 63.4849C70.2081 63.3914 69.9746 63.316 69.7317 63.2426C69.6662 63.2228 69.5996 63.2031 69.5322 63.1831C69.3526 63.1298 69.1678 63.0749 68.9866 63.0144C68.8618 62.9728 68.738 62.9334 68.6154 62.8943C68.2803 62.7876 67.9536 62.6836 67.6392 62.5441C66.9549 62.3163 66.3637 61.8789 65.9536 61.2966C65.5418 60.712 65.3346 60.0129 65.3628 59.3037C65.365 57.5754 66.4783 56.3847 67.8896 55.7473Z" fill="#172423"/>
<path d="M85.6869 55.5632C85.4147 55.4332 85.1137 55.3715 84.8111 55.3836C84.5084 55.3958 84.2136 55.4814 83.9533 55.6329C83.6946 55.7833 83.478 55.9939 83.3228 56.246C83.1805 56.4583 83.082 56.6957 83.0329 56.945C82.9838 57.1941 82.985 57.4501 83.0363 57.6986C83.087 58.018 83.1432 58.3286 83.1987 58.6349C83.2906 59.1418 83.38 59.6373 83.439 60.1425L83.4412 60.1553C83.5755 60.9476 83.6458 61.7489 83.6521 62.5519L83.6527 62.5633C83.6986 63.4305 83.3964 64.2808 82.8109 64.9338L82.8016 64.9454C82.6111 65.1841 82.3564 65.3663 82.0659 65.4716C81.7755 65.5769 81.4609 65.6011 81.1572 65.5415C80.8535 65.4819 80.5728 65.3409 80.3464 65.1342C80.12 64.9275 79.9567 64.6625 79.8752 64.3704C79.7012 63.7547 79.6005 63.1214 79.5749 62.4832L79.8721 57.8569C79.8765 57.7965 79.8815 57.7345 79.8866 57.6719C79.8979 57.5314 79.9095 57.3883 79.9143 57.2548C79.9213 57.0584 79.9153 56.8564 79.8685 56.6652C79.8206 56.4698 79.7295 56.2839 79.5679 56.1256C79.4079 55.9689 79.1919 55.8533 78.9201 55.7746C78.4286 55.6355 78.013 55.6399 77.6667 55.7836C77.3202 55.9273 77.0828 56.1941 76.9148 56.5023C76.7481 56.8079 76.641 57.1697 76.56 57.5321C76.4999 57.801 76.4516 58.0833 76.4057 58.352C76.3898 58.4446 76.3743 58.5355 76.3586 58.6238L76.3582 58.6264C76.1126 60.1 76.0395 61.5962 76.1403 63.086C76.1591 63.8911 76.3308 64.6858 76.6468 65.4295C77.0033 66.3891 77.649 67.2205 78.4987 67.814C79.3502 68.4087 80.3663 68.7364 81.4125 68.7537C82.4587 68.771 83.4856 68.4771 84.3572 67.911C85.2274 67.3457 85.9018 66.5355 86.2912 65.5876C86.8359 64.3801 87.0917 63.0669 87.0389 61.7481C87.0069 60.7853 86.9533 59.8151 86.9 58.8498C86.8738 58.3763 86.8477 57.9038 86.8243 57.4342C86.8125 56.9633 86.6537 56.5072 86.3691 56.1271C86.193 55.8868 85.9586 55.693 85.6869 55.5632Z" fill="#172423"/>
<path d="M95.3211 62.8173C95.2935 62.8516 95.2644 62.8871 95.234 62.924C95.0126 61.6752 94.8074 60.4268 94.6019 59.1765C94.5282 58.7279 94.4541 58.2774 94.3796 57.8282L94.3712 57.7781L94.344 57.7348C94.2927 57.6533 94.2876 57.5734 94.2876 57.403V57.3833L94.2845 57.3638C94.2289 57.0119 94.0661 56.6844 93.8174 56.4242C93.5694 56.1647 93.2473 55.9841 92.893 55.9057C92.5393 55.8204 92.1676 55.8392 91.8247 55.9598C91.4827 56.0801 91.1846 56.2963 90.9676 56.5813C90.7872 56.8 90.6393 57.0426 90.5285 57.3018C90.277 57.8602 90.0233 58.42 89.7689 58.9813L89.7645 58.991C89.1294 60.3923 88.49 61.803 87.8692 63.2248L87.8673 63.2294C87.4862 64.1513 87.1716 65.1227 86.8581 66.0911C86.7955 66.2844 86.7329 66.4776 86.6698 66.6703C86.5566 66.9759 86.5071 67.3005 86.5241 67.625C86.5035 67.9155 86.5746 68.2053 86.728 68.4552C86.8844 68.7102 87.1187 68.9108 87.3978 69.0289C87.6936 69.1557 88.0243 69.1826 88.3376 69.1054C88.6502 69.0283 88.9278 68.8519 89.1267 68.6039C89.3807 68.2984 89.5992 67.9652 89.7774 67.6122C90.3033 66.5604 90.8059 65.4958 91.3062 64.4358C91.4998 64.0258 91.6879 63.6586 91.9019 63.2587C91.9166 63.308 91.9316 63.3561 91.9471 63.4043C92.1714 64.3698 92.55 65.2946 93.0689 66.1448C93.1671 66.3249 93.3039 66.4823 93.4699 66.6062C93.6379 66.7316 93.8318 66.8196 94.0381 66.8643C94.2444 66.909 94.4582 66.9092 94.6646 66.8649C94.8707 66.8207 95.0652 66.7326 95.2333 66.6078L95.566 66.3643L98.1483 64.2376L97.9956 65.1891C97.786 66.497 97.578 67.794 97.357 69.0913C97.2124 69.6663 97.2126 70.2669 97.3576 70.8417C97.4204 71.1652 97.5804 71.463 97.8172 71.6972C98.056 71.9333 98.3618 72.0937 98.695 72.1577C99.0282 72.2216 99.3734 72.1862 99.6857 72.0559C99.9935 71.9276 100.255 71.713 100.438 71.4395C100.864 70.923 101.129 70.2977 101.202 69.638C101.312 68.7064 101.435 67.7621 101.559 66.8181C101.702 65.73 101.845 64.6422 101.965 63.5753L101.966 63.572C102.082 62.4041 102.138 61.2314 102.134 60.058C102.159 59.6872 102.065 59.3178 101.864 59.0021C101.662 58.6853 101.363 58.439 101.009 58.2981C100.642 58.1347 100.23 58.091 99.8352 58.1736C99.4429 58.2556 99.0878 58.4578 98.8214 58.7507C98.3451 59.1814 97.8983 59.6423 97.4838 60.1304L97.481 60.1337C97.0285 60.685 96.5791 61.2471 96.1326 61.8056C95.8611 62.1451 95.5904 62.4838 95.3211 62.8173Z" fill="#172423"/>
</g>
<defs>
<clipPath id="clip0_24542_16231">
<rect width="70" height="44" fill="white" transform="translate(42.125 30)"/>
</clipPath>
</defs>
</svg>
