<svg width="155" height="104" viewBox="0 0 155 104" fill="none" xmlns="http://www.w3.org/2000/svg">
<g clip-path="url(#clip0_24542_16180)">
<path fill-rule="evenodd" clip-rule="evenodd" d="M35.8977 56.5448C35.1443 56.5448 34.4217 56.2455 33.8889 55.7127C33.3561 55.18 33.0568 54.4574 33.0568 53.7039V40.6357H27.375V53.7039C27.375 58.4107 31.1909 62.2267 35.8977 62.2267H42.1477V56.5448H35.8977ZM52.9432 46.3176C52.2716 46.3176 51.6067 46.4498 50.9863 46.7068C50.3659 46.9638 49.8021 47.3405 49.3273 47.8153C48.8524 48.2902 48.4758 48.8539 48.2188 49.4743C47.9618 50.0947 47.8295 50.7597 47.8295 51.4312C47.8295 52.1027 47.9618 52.7677 48.2188 53.3881C48.4758 54.0085 48.8524 54.5722 49.3273 55.0471C49.8021 55.5219 50.3659 55.8986 50.9863 56.1556C51.6067 56.4126 52.2716 56.5448 52.9432 56.5448C54.2994 56.5448 55.6001 56.0061 56.5591 55.0471C57.5181 54.0881 58.0568 52.7874 58.0568 51.4312C58.0568 50.075 57.5181 48.7743 56.5591 47.8153C55.6001 46.8563 54.2994 46.3176 52.9432 46.3176ZM42.1477 51.4312C42.1477 45.4693 46.9812 40.6357 52.9432 40.6357C58.9051 40.6357 63.7386 45.4693 63.7386 51.4312C63.7386 57.3931 58.9051 62.2267 52.9432 62.2267C46.9812 62.2267 42.1477 57.3931 42.1477 51.4312ZM114.307 46.3176C112.951 46.3176 111.65 46.8563 110.691 47.8153C109.732 48.7743 109.193 50.075 109.193 51.4312C109.193 52.7874 109.732 54.0881 110.691 55.0471C111.65 56.0061 112.951 56.5448 114.307 56.5448C115.663 56.5448 116.964 56.0061 117.923 55.0471C118.882 54.0881 119.42 52.7874 119.42 51.4312C119.42 50.075 118.882 48.7743 117.923 47.8153C116.964 46.8563 115.663 46.3176 114.307 46.3176ZM103.511 51.4312C103.511 45.4693 108.345 40.6357 114.307 40.6357C120.269 40.6357 125.102 45.4693 125.102 51.4312C125.102 57.3931 120.269 62.2267 114.307 62.2267C108.345 62.2267 103.511 57.3931 103.511 51.4312ZM75.6705 40.6357C69.7085 40.6357 64.875 45.4693 64.875 51.4312C64.875 57.3931 69.7085 62.2267 75.6705 62.2267H91.5795C92.6983 62.2267 93.7773 62.0562 94.792 61.7403L97.8295 63.363L101.107 57.2244C101.939 55.6617 102.375 53.9183 102.375 52.1477V51.4312C102.375 45.4693 97.5415 40.6357 91.5795 40.6357H75.6705ZM96.6932 51.4312C96.6932 50.075 96.1544 48.7743 95.1954 47.8153C94.2364 46.8563 92.9358 46.3176 91.5795 46.3176H75.6705C74.9989 46.3176 74.334 46.4498 73.7136 46.7068C73.0931 46.9638 72.5294 47.3405 72.0546 47.8153C71.5797 48.2902 71.2031 48.8539 70.9461 49.4743C70.6891 50.0947 70.5568 50.7597 70.5568 51.4312C70.5568 52.1027 70.6891 52.7677 70.9461 53.3881C71.2031 54.0085 71.5797 54.5722 72.0546 55.0471C72.5294 55.5219 73.0931 55.8986 73.7136 56.1556C74.334 56.4126 74.9989 56.5448 75.6705 56.5448H91.5795C92.9289 56.5449 94.2236 56.0116 95.1814 55.0612C96.1393 54.1108 96.6827 52.8203 96.6932 51.471V51.4312Z" fill="#172423"/>
<path d="M127.375 42.0561C127.375 42.4328 127.226 42.7941 126.959 43.0605C126.693 43.3269 126.331 43.4766 125.955 43.4766C125.578 43.4766 125.217 43.3269 124.95 43.0605C124.684 42.7941 124.534 42.4328 124.534 42.0561C124.534 41.6794 124.684 41.3181 124.95 41.0517C125.217 40.7853 125.578 40.6357 125.955 40.6357C126.331 40.6357 126.693 40.7853 126.959 41.0517C127.226 41.3181 127.375 41.6794 127.375 42.0561Z" fill="#172423"/>
</g>
<defs>
<clipPath id="clip0_24542_16180">
<rect width="100" height="22.7273" fill="white" transform="translate(27.375 40.6364)"/>
</clipPath>
</defs>
</svg>
