<svg width="451" height="303" viewBox="0 0 451 303" fill="none" xmlns="http://www.w3.org/2000/svg">
<path d="M12.4851 210.04V179.766L88.3906 60.1818H114.491V102.085H99.044L51.1925 177.813V179.234H159.058V210.04H12.4851ZM99.7543 242V200.807L100.464 187.401V60.1818H136.509V242H99.7543Z" fill="#172423"/>
<path d="M292.485 210.04V179.766L368.391 60.1818H394.491V102.085H379.044L331.192 177.813V179.234H439.058V210.04H292.485ZM379.754 242V200.807L380.464 187.401V60.1818H416.509V242H379.754Z" fill="#172423"/>
<circle cx="225.5" cy="151" r="100" fill="#E99F69"/>
<path d="M205.097 108.8H255.693L218.495 163.935H167.899L205.097 108.8Z" fill="#172423"/>
<path d="M207.314 169.045L192.906 190.4H245.902L283.1 135.265H243.986L221.196 169.045H207.314Z" fill="white"/>
</svg>
