<svg width="155" height="104" viewBox="0 0 155 104" fill="none" xmlns="http://www.w3.org/2000/svg">
<g clip-path="url(#clip0_24542_16172)">
<path fill-rule="evenodd" clip-rule="evenodd" d="M33.5509 41.6449V63.8342H27.625V41.6449H33.5509Z" fill="#172423"/>
<path fill-rule="evenodd" clip-rule="evenodd" d="M36.5139 41.6449H49.1065C53.1975 41.6449 56.5139 44.9564 56.5139 49.0413C56.5139 53.1263 53.1975 56.4378 49.1065 56.4378H42.4398V63.8342H36.5139V41.6449ZM42.4398 50.5206H49.1065C49.9247 50.5206 50.588 49.8583 50.588 49.0413C50.588 48.2244 49.9247 47.5621 49.1065 47.5621H42.4398V50.5206Z" fill="#172423"/>
<path fill-rule="evenodd" clip-rule="evenodd" d="M78.7361 41.6449V53.1094C78.7361 55.7646 80.8918 57.9171 83.5509 57.9171C86.2101 57.9171 88.3658 55.7646 88.3658 53.1094V41.6449H94.2919V53.1094C94.2919 59.0326 89.483 63.8342 83.5509 63.8342C77.619 63.8342 72.8102 59.0326 72.8102 53.1094V41.6449H78.7361Z" fill="#172423"/>
<path fill-rule="evenodd" clip-rule="evenodd" d="M58.7361 51.9999C58.7361 46.281 63.3791 41.6449 69.1065 41.6449H70.588V47.5621H69.1065C66.6519 47.5621 64.662 49.549 64.662 51.9999V52.7396C64.662 58.867 59.6874 63.8342 53.5509 63.8342H52.8102V57.9171H53.5509C56.4146 57.9171 58.7361 55.599 58.7361 52.7396V51.9999Z" fill="#172423"/>
<path d="M127.625 42.3843C127.625 43.6098 126.63 44.6033 125.403 44.6033C124.175 44.6033 123.181 43.6098 123.181 42.3843C123.181 41.1589 124.175 40.1654 125.403 40.1654C126.63 40.1654 127.625 41.1589 127.625 42.3843Z" fill="#172423"/>
<path d="M100.655 63.834L103.482 52.0104L105.585 59.1236C106.838 63.3661 112.856 63.3661 114.11 59.1236L116.212 52.0104L119.04 63.834H125.132L120.686 45.242C119.629 40.8207 113.389 40.657 112.1 45.0168L109.848 52.6407L107.594 45.0168C106.306 40.657 100.066 40.8207 99.0085 45.242L94.5623 63.834H100.655Z" fill="#172423"/>
</g>
<defs>
<clipPath id="clip0_24542_16172">
<rect width="100" height="23.6686" fill="white" transform="translate(27.625 40.1657)"/>
</clipPath>
</defs>
</svg>
