<svg width="155" height="104" viewBox="0 0 155 104" fill="none" xmlns="http://www.w3.org/2000/svg">
<g clip-path="url(#clip0_24542_16200)">
<path fill-rule="evenodd" clip-rule="evenodd" d="M12.625 52C22.6916 52 28.4626 46.2291 28.4626 36.1624C28.4626 46.2291 34.2335 52 44.3001 52C34.2335 52 28.4626 57.771 28.4626 67.8376C28.4626 57.771 22.6916 52 12.625 52Z" fill="#172423"/>
<path d="M48.2595 57.9392L52.5891 44.9504H56.5089L60.8385 57.9392H57.9521L57.079 55.2666H52.0189L51.1459 57.9392H48.2595ZM52.6604 53.1463H56.4376L55.3329 49.8323L54.6024 47.4626H54.4955L53.765 49.8323L52.6604 53.1463Z" fill="#172423"/>
<path d="M65.67 58.0995C64.7198 58.0995 63.8883 57.8975 63.1756 57.4937C62.4629 57.0779 61.9106 56.5018 61.5186 55.7654C61.1266 55.0171 60.9306 54.15 60.9306 53.1641C60.9306 52.1663 61.1266 51.2992 61.5186 50.5628C61.9225 49.8144 62.4867 49.2383 63.2112 48.8345C63.9358 48.4187 64.7851 48.2109 65.7591 48.2109C66.5787 48.2109 67.3092 48.3653 67.9506 48.6741C68.5921 48.983 69.0969 49.4106 69.4651 49.957C69.8452 50.5034 70.0531 51.1388 70.0887 51.8634H67.523C67.4399 51.3645 67.232 50.9904 66.8994 50.7409C66.5668 50.4796 66.163 50.3489 65.6878 50.3489C64.9989 50.3489 64.4763 50.6043 64.1199 51.1151C63.7636 51.6259 63.5854 52.3088 63.5854 53.1641C63.5854 54.1025 63.7755 54.8033 64.1556 55.2665C64.5475 55.7298 65.0524 55.9614 65.67 55.9614C66.2283 55.9614 66.6678 55.8188 66.9885 55.5338C67.3211 55.2487 67.5111 54.8745 67.5587 54.4113H70.1065C70.0709 55.1596 69.8571 55.8129 69.4651 56.3712C69.085 56.9176 68.5683 57.3452 67.915 57.654C67.2617 57.951 66.5134 58.0995 65.67 58.0995Z" fill="#172423"/>
<path d="M71.358 57.9391V48.389H73.8881L73.9772 50.1173H74.0841C74.3216 49.4878 74.7077 49.0127 75.2422 48.6919C75.7767 48.3712 76.3647 48.2109 77.0061 48.2109C77.6713 48.2109 78.2771 48.3712 78.8233 48.6919C79.3697 49.0127 79.7736 49.565 80.0349 50.3489H80.1774C80.4031 49.6363 80.8011 49.1017 81.3712 48.7454C81.9532 48.389 82.6065 48.2109 83.3311 48.2109C83.9488 48.2109 84.5011 48.3415 84.9881 48.6029C85.4751 48.8642 85.8612 49.2859 86.1462 49.8679C86.4432 50.438 86.5917 51.2042 86.5917 52.1663V57.9391H83.9725V52.7365C83.9725 51.9287 83.8359 51.3289 83.5627 50.9369C83.3014 50.5449 82.8738 50.3489 82.2799 50.3489C81.6503 50.3489 81.1574 50.5806 80.8011 51.0438C80.4566 51.4952 80.2843 52.0238 80.2843 52.6296V57.9391H77.6653V52.7365C77.6653 51.9287 77.5287 51.3289 77.2555 50.9369C76.9942 50.5449 76.5666 50.3489 75.9727 50.3489C75.3313 50.3489 74.8383 50.5806 74.4939 51.0438C74.1494 51.4952 73.9772 52.0238 73.9772 52.6296V57.9391H71.358Z" fill="#172423"/>
<path d="M92.571 58.0995C91.5732 58.0995 90.718 57.8975 90.0053 57.4937C89.3045 57.0898 88.764 56.5256 88.3839 55.801C88.0038 55.0646 87.8138 54.2094 87.8138 53.2353C87.8138 52.2019 88.0038 51.3111 88.3839 50.5628C88.7759 49.8144 89.3223 49.2383 90.0231 48.8345C90.7239 48.4187 91.5435 48.2109 92.4819 48.2109C93.5866 48.2109 94.4953 48.4544 95.2079 48.9414C95.9206 49.4165 96.4314 50.0757 96.7402 50.9191C97.0491 51.7506 97.15 52.6949 97.0431 53.752H90.3973C90.3854 54.5122 90.5814 55.1002 90.9853 55.516C91.3891 55.9198 91.9177 56.1217 92.571 56.1217C93.0699 56.1217 93.4915 56.0148 93.836 55.801C94.1924 55.5753 94.418 55.2784 94.5131 54.9102H96.9897C96.9065 55.5516 96.663 56.1099 96.2592 56.585C95.8672 57.0601 95.3564 57.4343 94.7269 57.7075C94.0973 57.9688 93.3787 58.0995 92.571 58.0995ZM92.4819 50.1886C91.888 50.1886 91.4069 50.3608 91.0387 50.7053C90.6705 51.0379 90.4626 51.4952 90.4151 52.0772H94.4774C94.4418 51.4358 94.2339 50.9607 93.8538 50.6518C93.4856 50.343 93.0283 50.1886 92.4819 50.1886Z" fill="#172423"/>
<path d="M107.857 58.0997C106.562 58.0997 105.422 57.8384 104.436 57.3158C103.462 56.7931 102.702 56.0329 102.155 55.0351C101.609 54.0374 101.336 52.8377 101.336 51.4361C101.336 50.0344 101.609 48.8407 102.155 47.8548C102.702 46.857 103.462 46.0968 104.436 45.5742C105.422 45.0515 106.562 44.7902 107.857 44.7902C108.973 44.7902 109.965 44.9862 110.832 45.3782C111.699 45.7583 112.4 46.2988 112.935 46.9996C113.469 47.6885 113.796 48.4962 113.915 49.4227H111.1C110.945 48.7575 110.577 48.2171 109.995 47.8013C109.425 47.3737 108.712 47.1599 107.857 47.1599C106.74 47.1599 105.849 47.5163 105.184 48.229C104.531 48.9416 104.204 50.0107 104.204 51.4361C104.204 52.8733 104.531 53.9483 105.184 54.661C105.849 55.3737 106.74 55.73 107.857 55.73C108.688 55.73 109.401 55.5222 109.995 55.1064C110.589 54.6907 110.957 54.1383 111.1 53.4494H113.915C113.808 54.3759 113.481 55.1896 112.935 55.8904C112.388 56.5912 111.676 57.1376 110.797 57.5296C109.93 57.9097 108.95 58.0997 107.857 58.0997Z" fill="#172423"/>
<path d="M119.603 58.0995C118.653 58.0995 117.815 57.9035 117.091 57.5115C116.366 57.1195 115.802 56.5553 115.398 55.8188C115.006 55.0824 114.81 54.1975 114.81 53.1641C114.81 52.1782 115 51.317 115.38 50.5806C115.761 49.8322 116.307 49.2502 117.02 48.8345C117.732 48.4187 118.594 48.2109 119.603 48.2109C120.553 48.2109 121.385 48.4069 122.098 48.7988C122.822 49.1908 123.38 49.761 123.772 50.5093C124.176 51.2457 124.378 52.1307 124.378 53.1641C124.378 54.15 124.188 55.0171 123.808 55.7654C123.428 56.5018 122.882 57.0779 122.169 57.4937C121.468 57.8975 120.613 58.0995 119.603 58.0995ZM119.585 55.9792C120.227 55.9792 120.743 55.7476 121.135 55.2843C121.527 54.8211 121.723 54.1143 121.723 53.1641C121.723 52.2138 121.533 51.5071 121.153 51.0438C120.773 50.5806 120.256 50.3489 119.603 50.3489C118.95 50.3489 118.427 50.5806 118.035 51.0438C117.643 51.5071 117.447 52.2138 117.447 53.1641C117.447 54.1025 117.637 54.8092 118.017 55.2843C118.409 55.7476 118.932 55.9792 119.585 55.9792Z" fill="#172423"/>
<path d="M125.69 57.9391V48.3891H128.06L128.167 49.9213H128.256C128.469 49.3037 128.808 48.8761 129.271 48.6385C129.746 48.3891 130.287 48.2643 130.893 48.2643H131.427V50.7231H130.839C129.96 50.7231 129.325 50.9191 128.933 51.3111C128.541 51.6912 128.333 52.2376 128.309 52.9503V57.9391H125.69Z" fill="#172423"/>
<path d="M132.451 60.9146V48.389H134.981L135.07 50.0461H135.212C135.438 49.4878 135.812 49.0423 136.335 48.7098C136.869 48.3772 137.505 48.2109 138.241 48.2109C139.382 48.2109 140.302 48.6266 141.003 49.4581C141.716 50.2777 142.072 51.513 142.072 53.1641C142.072 54.8033 141.716 56.0386 141.003 56.8701C140.302 57.7015 139.382 58.1173 138.241 58.1173C137.505 58.1173 136.869 57.951 136.335 57.6184C135.812 57.2739 135.438 56.8285 135.212 56.2821H135.07V60.9146H132.451ZM137.261 55.997C137.903 55.997 138.414 55.7713 138.794 55.32C139.186 54.8567 139.382 54.1381 139.382 53.1641C139.382 52.1901 139.186 51.4774 138.794 51.026C138.414 50.5628 137.903 50.3311 137.261 50.3311C136.774 50.3311 136.37 50.444 136.05 50.6697C135.729 50.8953 135.491 51.1923 135.337 51.5605C135.183 51.9169 135.105 52.297 135.105 52.7008V53.6273C135.105 54.0312 135.183 54.4172 135.337 54.7854C135.491 55.1418 135.729 55.4328 136.05 55.6585C136.37 55.8842 136.774 55.997 137.261 55.997Z" fill="#172423"/>
</g>
<defs>
<clipPath id="clip0_24542_16200">
<rect width="130" height="31.6751" fill="white" transform="translate(12.625 36.1624)"/>
</clipPath>
</defs>
</svg>
