<svg width="154" height="104" viewBox="0 0 154 104" fill="none" xmlns="http://www.w3.org/2000/svg">
<g clip-path="url(#clip0_24542_16184)">
<path d="M107.402 35.4085C107.402 35.4598 107.402 35.524 107.389 35.5624C107.323 36.0626 107.323 36.5629 107.362 37.0759C107.389 37.2042 107.415 37.3324 107.52 37.435C107.69 37.6274 107.953 37.5889 108.058 37.3581C108.11 37.2426 108.11 37.1272 108.084 37.0118C107.953 36.5244 107.927 36.0113 107.913 35.5111C107.913 35.4855 107.913 35.447 107.913 35.4085C108.058 35.3957 108.189 35.3829 108.307 35.3829C108.399 35.37 108.478 35.3572 108.543 35.3187C108.74 35.2161 108.74 34.9981 108.53 34.8955C108.451 34.857 108.346 34.8442 108.255 34.8442C107.927 34.857 107.599 34.857 107.271 34.857C107.153 34.857 107.035 34.8698 106.916 34.8827C106.851 34.8955 106.772 34.8955 106.72 34.934C106.628 34.9724 106.575 35.0366 106.575 35.1263C106.589 35.2161 106.628 35.2674 106.72 35.3059C106.772 35.3444 106.838 35.3572 106.903 35.3572C107.061 35.37 107.231 35.3957 107.402 35.4085ZM111.009 35.9985C111.009 36.0113 111.022 36.0242 111.022 36.0242C111.075 36.3705 111.127 36.7039 111.167 37.0374C111.18 37.1528 111.193 37.2555 111.272 37.3452C111.442 37.5633 111.705 37.5376 111.823 37.3068C111.875 37.1913 111.888 37.0759 111.862 36.9476C111.783 36.5629 111.744 36.1781 111.665 35.8061C111.613 35.5753 111.547 35.3572 111.482 35.152C111.442 35.0237 111.35 34.934 111.193 34.9211C111.036 34.8955 110.917 34.9724 110.852 35.0879C110.773 35.1905 110.708 35.2931 110.655 35.4085C110.563 35.6137 110.485 35.819 110.38 36.0113C110.366 36.0626 110.353 36.1011 110.327 36.1396C110.314 36.1139 110.301 36.1011 110.301 36.1011C110.13 35.7805 109.973 35.4598 109.802 35.152C109.776 35.1263 109.763 35.1007 109.75 35.075C109.671 34.9596 109.579 34.8955 109.435 34.8955C109.304 34.9083 109.199 34.9853 109.133 35.1007C109.107 35.152 109.107 35.1905 109.094 35.2418C109.042 35.6522 108.976 36.0626 108.924 36.4731C108.897 36.7039 108.884 36.9348 108.884 37.1657C108.871 37.217 108.884 37.2811 108.91 37.3324C108.937 37.435 109.015 37.4992 109.12 37.512C109.251 37.5248 109.343 37.4863 109.383 37.3837C109.422 37.3068 109.435 37.2426 109.448 37.1785C109.501 36.9476 109.54 36.7296 109.579 36.5116C109.606 36.3833 109.619 36.2807 109.658 36.1396C109.684 36.1909 109.711 36.2294 109.737 36.2679C109.855 36.4218 109.973 36.5757 110.117 36.7039C110.262 36.8065 110.38 36.7937 110.498 36.6783C110.524 36.6526 110.537 36.6398 110.563 36.6142C110.681 36.4346 110.826 36.255 110.944 36.0755C110.97 36.0498 110.983 36.0242 111.009 35.9985Z" fill="#172423"/>
<path d="M80.7837 35.6605C80.6925 35.9043 80.6751 36.0799 80.7172 36.2258C80.7637 36.4243 80.8844 36.4893 81.0482 36.4388C82.589 36.0663 85.9677 37.1237 87.2186 37.4184C87.5136 37.4803 87.7536 37.1079 87.5523 36.7741C87.2585 36.4508 83.8813 35.0666 82.5927 34.9911C82.0876 34.9632 81.1846 34.8366 80.7837 35.6605Z" fill="#172423"/>
<path d="M93.9883 31.1798C94.1525 31.2725 94.2443 31.3609 94.2896 31.4597C94.3571 31.5892 94.3215 31.6789 94.2081 31.7246C93.1896 32.2106 91.8343 34.303 91.2872 35.0247C91.1546 35.1907 90.8487 35.0942 90.8025 34.8212C90.812 34.5125 92.0134 32.2418 92.6839 31.6233C92.9474 31.3819 93.3827 30.9081 93.9883 31.1798Z" fill="#172423"/>
<path d="M85.8773 30.1498C86.0746 30.0044 86.2796 29.9535 86.3843 30.048C87.921 31.3329 88.7359 33.3677 89.2405 35.2306C89.2595 35.274 89.2607 35.3362 89.2455 35.4012C89.2392 35.4567 89.1977 35.5154 89.1318 35.5608C89.0614 35.6109 89.0008 35.6262 88.9723 35.583C88.2988 34.6873 84.4521 31.2024 85.8773 30.1498Z" fill="#172423"/>
<path d="M53.336 52.4276C53.7043 52.1595 54.1047 51.9363 54.5284 51.7631C54.9717 51.6392 55.4442 51.6597 55.8745 51.8217C56.3047 51.9837 56.6694 52.2782 56.9132 52.6608C57.1313 53.0424 57.2166 53.483 57.1564 53.9162C57.0962 54.3493 56.8937 54.7516 56.5793 55.0625C56.3356 55.3145 56.0589 55.534 55.7566 55.7154C54.4092 56.5665 53.0498 57.3709 51.6905 58.222C51.4123 58.435 51.1172 58.6261 50.8081 58.7933C50.3378 59.0226 49.8004 59.084 49.2887 58.9669C48.777 58.8499 48.3233 58.5616 48.0059 58.1521C47.7687 57.8621 47.5685 57.545 47.4097 57.2077C46.1219 54.5612 44.7864 51.9263 43.5463 49.2331C42.9739 48.0673 42.5089 46.7265 42.0558 45.4324C41.8598 45.0564 41.8215 44.6205 41.9491 44.2173C42.0767 43.8141 42.3602 43.4755 42.7392 43.2735C43.1182 43.0715 43.5628 43.0221 43.9786 43.1357C44.3943 43.2493 44.7483 43.517 44.9653 43.8818C45.6322 44.7484 46.2226 45.6689 46.73 46.6333C48.0178 48.965 49.246 51.2967 50.4861 53.5585C50.5583 53.6835 50.638 53.8041 50.7246 53.9199C51.658 53.5362 52.5359 53.0345 53.336 52.4276Z" fill="#172423"/>
<path d="M66.6511 51.6142C63.7059 54.9835 58.7693 54.1324 56.2891 49.7954C54.5243 46.7175 54.2143 41.6343 58.0539 38.4282C58.8738 37.7569 59.8542 37.2997 60.9037 37.0991C62.1905 36.9187 63.5027 37.1407 64.6527 37.7332C65.8027 38.3258 66.7317 39.2587 67.307 40.3985C69.4056 44.1293 69.1075 48.886 66.6511 51.6142ZM65.4587 43.7562C65.1458 42.8394 64.5181 42.0567 63.682 41.541C63.2089 41.2113 62.634 41.051 62.0542 41.0871C61.4743 41.1232 60.9249 41.3535 60.4983 41.7392C58.7932 43.2199 58.4354 46.7292 59.6755 48.8161C59.8336 49.1564 60.0657 49.4588 60.3558 49.7022C60.6459 49.9456 60.9869 50.1241 61.3549 50.2251C61.7229 50.3262 62.109 50.3474 62.4863 50.2873C62.8636 50.2271 63.2228 50.0871 63.539 49.877C64.4633 49.1763 65.1414 48.2115 65.479 47.1167C65.8167 46.0218 65.7971 44.8513 65.423 43.7679L65.4587 43.7562Z" fill="#172423"/>
<path d="M78.6705 45.2252C78.369 45.2886 78.0575 45.2924 77.7544 45.2363C77.4514 45.1802 77.1628 45.0655 76.9058 44.8988C76.6809 44.773 76.4873 44.6001 76.3389 44.3924C76.1906 44.1847 76.0912 43.9475 76.0479 43.6977C76.0045 43.448 76.0184 43.192 76.0883 42.9481C76.1583 42.7042 76.2828 42.4785 76.4527 42.2872C76.7487 41.9028 77.1689 41.6276 77.6451 41.5061C78.8884 41.1533 80.1683 40.9382 81.4608 40.8649C81.7448 40.8326 82.0325 40.8561 82.307 40.934C82.5816 41.012 82.8374 41.1427 83.0596 41.3187C83.2817 41.4946 83.4657 41.7122 83.6007 41.9586C83.7356 42.205 83.8189 42.4753 83.8456 42.7536C84.2182 44.1206 84.259 45.5539 83.9648 46.9391C82.8917 51.416 79.1952 52.9549 75.0456 51.5209C73.8808 51.1375 72.8595 50.4231 72.1123 49.469C71.1157 48.32 70.4091 46.9583 70.0494 45.4934C69.758 44.1889 69.7899 42.8353 70.1426 41.5454C70.4952 40.2555 71.1583 39.0668 72.0765 38.0785C72.9479 37.0043 74.0789 36.1589 75.3676 35.6185C76.1819 35.1796 77.1348 35.0548 78.0386 35.2687C78.2436 35.3242 78.4297 35.4323 78.5776 35.5818C78.7255 35.7313 78.8298 35.9168 78.8797 36.119C78.9296 36.3212 78.9232 36.5328 78.8613 36.7318C78.7993 36.9308 78.6841 37.1099 78.5275 37.2507C78.2297 37.5142 77.9062 37.7485 77.5616 37.9502C76.5015 38.6103 75.579 39.4608 74.8429 40.4568C74.3604 41.1013 74.0281 41.8414 73.8695 42.6249C73.7108 43.4084 73.7297 44.2164 73.9248 44.9921C74.1952 46.0497 74.7953 46.999 75.6418 47.7085C78.2651 50.0403 81.6754 47.7901 81.0792 44.6073C80.2088 44.8172 79.4456 45.0387 78.6705 45.2252Z" fill="#172423"/>
<path d="M94.6967 51.8007C90.8214 54.1325 86.4095 51.8007 85.4436 46.9041C84.7401 43.4065 86.0756 38.5098 90.7499 36.6444C91.7444 36.2561 92.8231 36.1197 93.8859 36.248C95.1628 36.4766 96.3342 37.0912 97.2348 38.0053C98.1354 38.9193 98.72 40.0867 98.9059 41.3429C99.6929 45.505 97.9043 49.947 94.6967 51.8007ZM96.0442 43.9544C96.043 42.9859 95.6926 42.0487 95.0545 41.3079C94.7134 40.8497 94.2203 40.5214 93.6593 40.3789C93.0982 40.2365 92.5041 40.2887 91.978 40.5268C89.8794 41.4128 88.4008 44.6306 88.9374 46.9974C88.9784 47.3688 89.1018 47.727 89.2991 48.0469C89.4964 48.3668 89.7628 48.6407 90.0797 48.8495C90.3965 49.0582 90.7562 49.1968 91.1335 49.2555C91.5109 49.3141 91.8968 49.2915 92.2642 49.1892C93.3735 48.8103 94.334 48.1022 95.0116 47.1637C95.6893 46.2252 96.0503 45.1032 96.0442 43.9544Z" fill="#172423"/>
<path d="M102.825 52.7801C102.766 53.2068 102.537 53.5933 102.187 53.8546C101.837 54.1158 101.395 54.2305 100.959 54.1733C100.522 54.1161 100.127 53.8917 99.8599 53.5495C99.5926 53.2074 99.4754 52.7754 99.5339 52.3487C99.5924 51.922 99.8219 51.5355 100.172 51.2742C100.522 51.0129 100.964 50.8983 101.4 50.9555C101.836 51.0127 102.232 51.237 102.499 51.5792C102.766 51.9214 102.884 52.3534 102.825 52.7801ZM101.787 37.0525C102.014 36.7138 102.347 36.4559 102.736 36.3173C103.125 36.1786 103.549 36.1666 103.946 36.283C104.349 36.3816 104.705 36.6126 104.955 36.9373C105.204 37.2621 105.332 37.6608 105.317 38.0668C105.265 38.7179 105.165 39.3647 105.019 40.0021C104.626 42.159 104.244 44.3158 103.827 46.4494C103.636 47.3005 103.385 48.1166 103.111 48.9793C103.016 49.249 102.856 49.4927 102.646 49.6905C102.515 49.8393 102.349 49.9534 102.161 50.0223C101.973 50.0913 101.77 50.1128 101.572 50.0849C101.373 50.057 101.185 49.9806 101.025 49.8628C100.865 49.7449 100.737 49.5894 100.655 49.4107C100.513 49.0901 100.436 48.7456 100.428 48.3964C100.428 46.9507 100.428 45.4934 100.524 44.036C100.686 41.9562 101.005 39.8909 101.478 37.8569C101.533 37.5844 101.638 37.3238 101.787 37.0874V37.0525Z" fill="#172423"/>
<path fill-rule="evenodd" clip-rule="evenodd" d="M48.2981 62.1488C48.1573 62.4561 48.1187 62.7987 48.1875 63.1284C48.2333 63.563 48.3338 63.9905 48.4868 64.4011C48.6778 64.9039 48.8916 65.4011 49.1551 66.0139C49.2157 66.1549 49.2791 66.3021 49.3454 66.457C49.7008 67.2872 50.1467 68.3482 50.7416 69.8837C50.91 70.3199 51.0595 70.7597 51.21 71.2025C51.2709 71.3814 51.3319 71.5609 51.3944 71.7408C51.6183 72.3804 52.0037 72.955 52.5145 73.4104C52.7314 73.6607 53.0191 73.8431 53.3417 73.9343C53.6706 74.0273 54.0204 74.0214 54.3458 73.9174C54.6712 73.8133 54.957 73.6159 55.1661 73.3508C55.3711 73.0909 55.493 72.7777 55.5167 72.4505C55.6497 71.8131 55.6043 71.1522 55.3851 70.5377C55.0372 69.5174 54.6409 68.4956 54.1839 67.4962L54.1818 67.4918C53.43 65.9282 52.6658 64.3754 51.8654 62.822L51.8594 62.8111C51.6251 62.4064 51.3207 62.0446 50.9597 61.742C50.7253 61.4719 50.402 61.2897 50.045 61.2269C49.6804 61.1628 49.3044 61.2274 48.984 61.4093C48.681 61.5785 48.4408 61.8374 48.2981 62.1488Z" fill="#172423"/>
<path fill-rule="evenodd" clip-rule="evenodd" d="M59.7807 58.2986C58.6019 58.0001 57.3708 57.9566 56.1732 58.1712C55.2456 58.2605 54.3333 58.4697 53.6998 58.8841C53.3776 59.095 53.1171 59.3658 52.9722 59.71C52.8265 60.0561 52.8079 60.4519 52.9273 60.8929C53.1453 61.7007 53.4284 62.4861 53.7105 63.269L53.7562 63.3958L53.7573 63.3986C54.6067 65.673 55.4642 67.9397 56.3295 70.1986C56.4304 70.5546 56.5731 70.898 56.7547 71.2219L56.7581 71.2279C56.998 71.6303 57.3057 71.9902 57.6682 72.2925C57.8495 72.4587 58.0737 72.5737 58.3168 72.6251C58.5623 72.6769 58.8176 72.6619 59.0549 72.5815C59.2923 72.5012 59.5025 72.3587 59.6627 72.1695C59.8203 71.9834 59.9235 71.7592 59.9614 71.5206C60.1178 70.8724 60.0677 70.1929 59.8177 69.5733C59.7397 69.3648 59.6785 69.1517 59.614 68.9274C59.5925 68.8526 59.5707 68.7765 59.5477 68.699C61.5284 67.942 63.6359 66.9241 64.377 64.5561C64.6672 63.7378 64.6914 62.8517 64.4462 62.0193C64.2008 61.186 63.6973 60.4474 63.0051 59.9052C62.063 59.1462 60.9625 58.5978 59.7807 58.2986ZM56.5132 61.2031C56.5522 61.1921 56.5915 61.1819 56.6309 61.1724C57.9204 60.9742 59.2397 61.2383 60.3459 61.9159C60.8334 62.2474 61.0331 62.6157 61.0674 62.9701C61.1028 63.335 60.9671 63.7304 60.6945 64.1105C60.1794 64.8285 59.2394 65.4032 58.3903 65.5103C57.7713 64.1165 57.1427 62.6663 56.5132 61.2031Z" fill="#172423"/>
<path d="M67.6396 55.7473C69.0434 55.1134 70.7823 55.0039 72.143 55.4496C72.4857 55.5472 72.783 55.7583 72.9841 56.0468C73.1839 56.3335 73.2761 56.679 73.2453 57.0244C73.2433 57.2486 73.187 57.4692 73.0811 57.6682C72.9733 57.8708 72.8172 58.045 72.626 58.1762C72.4348 58.3073 72.2141 58.3916 71.9826 58.4217C71.751 58.4519 71.5155 58.4271 71.2958 58.3494L71.2791 58.3435L71.2634 58.3354C71.151 58.2779 71.0316 58.2346 70.9081 58.2064L70.9003 58.2047C69.9431 57.9561 69.0402 58.368 68.7104 58.8741C68.5531 59.1154 68.5336 59.359 68.6646 59.5806C68.8049 59.8179 69.149 60.0842 69.8453 60.274C70.0368 60.3254 70.2331 60.375 70.4322 60.4254C70.9828 60.5648 71.555 60.7096 72.1083 60.9103L72.1104 60.9111C74.663 61.8607 75.6135 63.8274 75.2881 65.6772C74.9662 67.5065 73.4037 69.1713 71.054 69.564C70.199 69.7493 69.3092 69.7132 68.4727 69.4593C67.6341 69.2046 66.8782 68.7399 66.2801 68.1111L66.2645 68.0947C66.0757 67.8578 65.9487 67.5795 65.8924 67.2842C65.8406 67.0177 65.8679 66.7423 65.9709 66.4904C66.0733 66.24 66.2465 66.0233 66.47 65.8654C66.7061 65.6864 66.9907 65.579 67.2886 65.5566C67.5855 65.5343 67.8826 65.5974 68.1433 65.738C68.4037 65.861 68.6459 66.0179 68.8633 66.2045L68.8674 66.2079C69.252 66.5518 69.7173 66.6414 70.1635 66.5584C70.6162 66.4742 71.0419 66.2123 71.3157 65.8648C71.5877 65.5195 71.6969 65.1093 71.5673 64.7111C71.4369 64.31 71.0448 63.8606 70.1833 63.4849C69.9581 63.3914 69.7246 63.316 69.4817 63.2426C69.4162 63.2228 69.3496 63.2031 69.2822 63.1831C69.1026 63.1298 68.9178 63.0749 68.7366 63.0144C68.6118 62.9728 68.488 62.9334 68.3654 62.8943C68.0303 62.7876 67.7036 62.6836 67.3892 62.5441C66.7049 62.3163 66.1137 61.8789 65.7036 61.2966C65.2918 60.712 65.0846 60.0129 65.1128 59.3037C65.115 57.5754 66.2283 56.3847 67.6396 55.7473Z" fill="#172423"/>
<path d="M85.4369 55.5632C85.1647 55.4332 84.8637 55.3715 84.5611 55.3836C84.2584 55.3958 83.9636 55.4814 83.7033 55.6329C83.4446 55.7833 83.228 55.9939 83.0728 56.246C82.9305 56.4583 82.832 56.6957 82.7829 56.945C82.7338 57.1941 82.735 57.4501 82.7863 57.6986C82.837 58.018 82.8932 58.3286 82.9487 58.6349C83.0406 59.1418 83.13 59.6373 83.189 60.1425L83.1912 60.1553C83.3255 60.9476 83.3958 61.7489 83.4021 62.5519L83.4027 62.5633C83.4486 63.4305 83.1464 64.2808 82.5609 64.9338L82.5516 64.9454C82.3611 65.1841 82.1064 65.3663 81.8159 65.4716C81.5255 65.5769 81.2109 65.6011 80.9072 65.5415C80.6035 65.4819 80.3228 65.3409 80.0964 65.1342C79.87 64.9275 79.7067 64.6625 79.6252 64.3704C79.4512 63.7547 79.3505 63.1214 79.3249 62.4832L79.6221 57.8569C79.6265 57.7965 79.6315 57.7345 79.6366 57.6719C79.6479 57.5314 79.6595 57.3883 79.6643 57.2548C79.6713 57.0584 79.6653 56.8564 79.6185 56.6652C79.5706 56.4698 79.4795 56.2839 79.3179 56.1256C79.1579 55.9689 78.9419 55.8533 78.6701 55.7746C78.1786 55.6355 77.763 55.6399 77.4167 55.7836C77.0702 55.9273 76.8328 56.1941 76.6648 56.5023C76.4981 56.8079 76.391 57.1697 76.31 57.5321C76.2499 57.801 76.2016 58.0833 76.1557 58.352C76.1398 58.4446 76.1243 58.5355 76.1086 58.6238L76.1082 58.6264C75.8626 60.1 75.7895 61.5962 75.8903 63.086C75.9091 63.8911 76.0808 64.6858 76.3968 65.4295C76.7533 66.3891 77.399 67.2205 78.2487 67.814C79.1002 68.4087 80.1163 68.7364 81.1625 68.7537C82.2087 68.771 83.2356 68.4771 84.1072 67.911C84.9774 67.3457 85.6518 66.5355 86.0412 65.5876C86.5859 64.3801 86.8417 63.0669 86.7889 61.7481C86.7569 60.7853 86.7033 59.8151 86.65 58.8498C86.6238 58.3763 86.5977 57.9038 86.5743 57.4342C86.5625 56.9633 86.4037 56.5072 86.1191 56.1271C85.943 55.8868 85.7086 55.693 85.4369 55.5632Z" fill="#172423"/>
<path d="M95.0711 62.8173C95.0435 62.8516 95.0144 62.8871 94.984 62.924C94.7626 61.6752 94.5574 60.4268 94.3519 59.1765C94.2782 58.7279 94.2041 58.2774 94.1296 57.8282L94.1212 57.7781L94.094 57.7348C94.0427 57.6533 94.0376 57.5734 94.0376 57.403V57.3833L94.0345 57.3638C93.9789 57.0119 93.8161 56.6844 93.5674 56.4242C93.3194 56.1647 92.9973 55.9841 92.643 55.9057C92.2893 55.8204 91.9176 55.8392 91.5747 55.9598C91.2327 56.0801 90.9346 56.2963 90.7176 56.5813C90.5372 56.8 90.3893 57.0426 90.2785 57.3018C90.027 57.8602 89.7733 58.42 89.5189 58.9813L89.5145 58.991C88.8794 60.3923 88.24 61.803 87.6192 63.2248L87.6173 63.2294C87.2362 64.1513 86.9216 65.1227 86.6081 66.0911C86.5455 66.2844 86.4829 66.4776 86.4198 66.6703C86.3066 66.9759 86.2571 67.3005 86.2741 67.625C86.2535 67.9155 86.3246 68.2053 86.478 68.4552C86.6344 68.7102 86.8687 68.9108 87.1478 69.0289C87.4436 69.1557 87.7743 69.1826 88.0876 69.1054C88.4002 69.0283 88.6778 68.8519 88.8767 68.6039C89.1307 68.2984 89.3492 67.9652 89.5274 67.6122C90.0533 66.5604 90.5559 65.4958 91.0562 64.4358C91.2498 64.0258 91.4379 63.6586 91.6519 63.2587C91.6666 63.308 91.6816 63.3561 91.6971 63.4043C91.9214 64.3698 92.3 65.2946 92.8189 66.1448C92.9171 66.3249 93.0539 66.4823 93.2199 66.6062C93.3879 66.7316 93.5818 66.8196 93.7881 66.8643C93.9944 66.909 94.2082 66.9092 94.4146 66.8649C94.6207 66.8207 94.8152 66.7326 94.9833 66.6078L95.316 66.3643L97.8983 64.2376L97.7456 65.1891C97.536 66.497 97.328 67.794 97.107 69.0913C96.9624 69.6663 96.9626 70.2669 97.1076 70.8417C97.1704 71.1652 97.3304 71.463 97.5672 71.6972C97.806 71.9333 98.1118 72.0937 98.445 72.1577C98.7782 72.2216 99.1234 72.1862 99.4357 72.0559C99.7435 71.9276 100.005 71.713 100.188 71.4395C100.614 70.923 100.879 70.2977 100.952 69.638C101.061 68.7064 101.185 67.7621 101.309 66.8181C101.452 65.73 101.595 64.6422 101.715 63.5753L101.715 63.572C101.831 62.4041 101.888 61.2314 101.884 60.058C101.909 59.6872 101.815 59.3178 101.613 59.0021C101.412 58.6853 101.113 58.439 100.759 58.2981C100.392 58.1347 99.9801 58.091 99.5852 58.1736C99.1929 58.2556 98.8378 58.4578 98.5714 58.7507C98.0951 59.1814 97.6483 59.6423 97.2338 60.1304L97.231 60.1337C96.7785 60.685 96.3291 61.2471 95.8826 61.8056C95.6111 62.1451 95.3404 62.4838 95.0711 62.8173Z" fill="#172423"/>
</g>
<defs>
<clipPath id="clip0_24542_16184">
<rect width="70" height="44" fill="white" transform="translate(41.875 30)"/>
</clipPath>
</defs>
</svg>
