<svg width="154" height="104" viewBox="0 0 154 104" fill="none" xmlns="http://www.w3.org/2000/svg">
<g clip-path="url(#clip0_24542_16212)">
<path d="M85.089 57.6793H87.8696V47.1907H85.089V57.6793ZM85.089 45.5551H87.8696V43.0607H85.089V45.5551Z" fill="#172423"/>
<path d="M89.6616 61.1143H92.4423V56.4935H92.4828C93.0756 57.3932 94.0369 57.9861 95.5086 57.9861C98.2076 57.9861 100.048 55.8393 100.048 52.4453C100.048 49.174 98.269 46.9045 95.4883 46.9045C94.0572 46.9045 93.0756 47.5793 92.4011 48.4993H92.3397V47.1908H89.6616V61.1143ZM94.9159 55.6757C93.2599 55.6757 92.3809 54.4286 92.3809 52.5271C92.3809 50.6461 93.0756 49.1536 94.8139 49.1536C96.5313 49.1536 97.226 50.5439 97.226 52.5271C97.226 54.5103 96.3268 55.6757 94.9159 55.6757Z" fill="#172423"/>
<path d="M105.594 57.9861C108.212 57.9861 110.011 56.7185 110.011 54.6125C110.011 52.1591 108.069 51.6684 106.31 51.3004C104.817 50.9937 103.427 50.9119 103.427 50.0123C103.427 49.2558 104.143 48.8469 105.226 48.8469C106.413 48.8469 107.128 49.2558 107.25 50.3803H109.765C109.561 48.2744 108.027 46.9045 105.268 46.9045C102.875 46.9045 100.994 47.9882 100.994 50.2576C100.994 52.5476 102.835 53.0587 104.715 53.4267C106.147 53.713 107.475 53.8152 107.475 54.817C107.475 55.5531 106.78 56.0233 105.554 56.0233C104.306 56.0233 103.448 55.4917 103.264 54.2854H100.688C100.851 56.514 102.548 57.9861 105.594 57.9861Z" fill="#172423"/>
<path d="M120.568 57.6793V47.1907H117.787V53.2427C117.787 54.6329 116.99 55.6143 115.681 55.6143C114.495 55.6143 113.944 54.9396 113.944 53.7129V47.1907H111.183V54.1831C111.183 56.473 112.492 57.9656 114.823 57.9656C116.295 57.9656 117.113 57.4136 117.828 56.4526H117.89V57.6793H120.568Z" fill="#172423"/>
<path d="M122.366 57.6794H125.147V51.5866C125.147 50.1963 125.904 49.2967 127.028 49.2967C128.05 49.2967 128.643 49.91 128.643 51.0959V57.6794H131.424V51.5866C131.424 50.1963 132.139 49.2967 133.305 49.2967C134.327 49.2967 134.92 49.91 134.92 51.0959V57.6794H137.701V50.6256C137.701 48.3357 136.453 46.9045 134.245 46.9045C132.916 46.9045 131.812 47.5997 131.096 48.7446H131.056C130.545 47.6406 129.482 46.9045 128.152 46.9045C126.701 46.9045 125.679 47.6406 125.106 48.6015H125.045V47.1908H122.366V57.6794Z" fill="#172423"/>
<path d="M12.6165 57.6793H15.3971V43.0607H12.6165V57.6793Z" fill="#172423"/>
<path d="M22.196 57.9861C25.4468 57.9861 27.6754 55.5735 27.6754 52.4453C27.6754 49.3171 25.4468 46.9045 22.196 46.9045C18.9451 46.9045 16.7165 49.3171 16.7165 52.4453C16.7165 55.5735 18.9451 57.9861 22.196 57.9861ZM22.196 55.8598C20.4786 55.8598 19.538 54.4899 19.538 52.4453C19.538 50.4008 20.4786 49.0105 22.196 49.0105C23.893 49.0105 24.8539 50.4008 24.8539 52.4453C24.8539 54.4899 23.893 55.8598 22.196 55.8598Z" fill="#172423"/>
<path d="M33.5886 61.2574C35.1425 61.2574 36.4919 60.8894 37.371 60.0715C38.148 59.3559 38.6183 58.3541 38.6183 56.882V47.1908H35.9399V48.2949H35.899C35.2651 47.4157 34.3042 46.9045 32.9957 46.9045C30.3378 46.9045 28.4568 48.9082 28.4568 52.0364C28.4568 55.2055 30.7467 57.0456 33.0775 57.0456C34.4064 57.0456 35.2038 56.514 35.8172 55.8188H35.8785V56.9638C35.8785 58.395 35.122 59.1515 33.5477 59.1515C32.2596 59.1515 31.6667 58.6403 31.4418 57.9861H28.6817C28.9679 60.0307 30.7262 61.2574 33.5886 61.2574ZM33.5477 54.817C32.1165 54.817 31.1761 53.7743 31.1761 51.9955C31.1761 50.2372 32.1165 49.1331 33.5273 49.1331C35.2038 49.1331 36.0217 50.4417 36.0217 51.9751C36.0217 53.5289 35.3061 54.817 33.5477 54.817Z" fill="#172423"/>
<path d="M45.377 57.9861C48.6278 57.9861 50.8564 55.5735 50.8564 52.4453C50.8564 49.3171 48.6278 46.9045 45.377 46.9045C42.1262 46.9045 39.8976 49.3171 39.8976 52.4453C39.8976 55.5735 42.1262 57.9861 45.377 57.9861ZM45.377 55.8598C43.6596 55.8598 42.7191 54.4899 42.7191 52.4453C42.7191 50.4008 43.6596 49.0105 45.377 49.0105C47.074 49.0105 48.035 50.4008 48.035 52.4453C48.035 54.4899 47.074 55.8598 45.377 55.8598Z" fill="#172423"/>
<path d="M138.711 45.469C138.711 44.9985 139.093 44.6171 139.563 44.6171H141.267C141.737 44.6171 142.119 44.9985 142.119 45.469C142.119 45.9395 141.737 46.3209 141.267 46.3209H139.563C139.093 46.3209 138.711 45.9395 138.711 45.469Z" fill="#172423"/>
<path fill-rule="evenodd" clip-rule="evenodd" d="M67.7195 40.0735C74.3062 40.0735 79.6463 45.4132 79.6463 52.0001C79.6463 58.587 74.3062 63.9267 67.7195 63.9267C61.1326 63.9267 55.7929 58.587 55.7929 52.0001C55.7929 45.4132 61.1326 40.0735 67.7195 40.0735ZM67.2884 40.966C65.9278 41.1575 64.6322 42.2508 63.6265 44.0793C63.3348 44.6097 63.0716 45.1957 62.8422 45.8284C64.2097 45.4847 65.7119 45.2821 67.2884 45.2508V40.966ZM61.8342 46.1148C62.1195 45.2196 62.4684 44.396 62.8711 43.6638C63.3696 42.7574 63.9613 41.9746 64.6279 41.3734C61.0029 42.4262 58.1456 45.2835 57.0927 48.9086C57.694 48.2419 58.4767 47.6503 59.3832 47.1517C60.1154 46.749 60.939 46.4 61.8342 46.1148ZM61.5477 47.1228C61.2041 48.4903 61.0015 49.9925 60.9701 51.569H56.6853C56.8768 50.2084 57.9701 48.9128 59.7987 47.9072C60.3291 47.6154 60.915 47.3522 61.5477 47.1228ZM61.8325 51.569C61.8681 49.8486 62.1158 48.2333 62.5256 46.8062C63.9527 46.3964 65.568 46.1487 67.2884 46.1131V47.9754C66.6466 49.6185 65.3375 50.9274 63.6944 51.569H61.8325ZM60.9701 52.4312H56.6853C56.8768 53.7919 57.9701 55.0874 59.7987 56.0931C60.3291 56.3848 60.915 56.648 61.5477 56.8774C61.2041 55.5099 61.0015 54.0077 60.9701 52.4312ZM62.5256 57.194C62.1158 55.7669 61.8681 54.1517 61.8325 52.4312H63.6944C65.3375 53.0728 66.6466 54.3817 67.2884 56.0249V57.8872C65.568 57.8516 63.9527 57.6038 62.5256 57.194ZM61.8342 57.8854C60.939 57.6002 60.1154 57.2512 59.3832 56.8485C58.4767 56.35 57.694 55.7583 57.0927 55.0917C58.1456 58.7167 61.0029 61.5741 64.6279 62.6268C63.9613 62.0256 63.3696 61.2429 62.8711 60.3364C62.4684 59.6043 62.1195 58.7806 61.8342 57.8854ZM67.2884 63.0343C65.9278 62.8428 64.6322 61.7495 63.6265 59.9209C63.3348 59.3906 63.0716 58.8045 62.8422 58.1719C64.2097 58.5155 65.7119 58.7181 67.2884 58.7494V63.0343ZM70.8111 62.6268C71.4777 62.0256 72.0693 61.2429 72.5679 60.3364C72.9704 59.6043 73.3198 58.7806 73.6049 57.8854C74.5 57.6002 75.3235 57.2512 76.0558 56.8485C76.9622 56.35 77.7452 55.7583 78.3463 55.0917C77.2932 58.7167 74.4362 61.5741 70.8111 62.6268ZM72.5971 58.1719C72.3675 58.8045 72.1039 59.3906 71.8123 59.9209C70.8068 61.7495 69.5112 62.8428 68.1506 63.0343V58.7494C69.7271 58.7181 71.2293 58.5155 72.5971 58.1719ZM73.8911 56.8774C74.5238 56.648 75.11 56.3848 75.6402 56.0931C77.4691 55.0874 78.5622 53.7919 78.7536 52.4312H74.469C74.4374 54.0077 74.2346 55.5099 73.8911 56.8774ZM73.6067 52.4312C73.5709 54.1517 73.3234 55.7669 72.9131 57.194C71.4862 57.6038 69.871 57.8516 68.1506 57.8872V56.0262C68.7922 54.3825 70.1016 53.073 71.7452 52.4312H73.6067ZM74.469 51.569H78.7536C78.5622 50.2084 77.4691 48.9128 75.6402 47.9072C75.11 47.6154 74.5238 47.3522 73.8911 47.1228C74.2346 48.4903 74.4374 49.9925 74.469 51.569ZM72.9131 46.8062C73.3234 48.2333 73.5709 49.8486 73.6067 51.569H71.7452C70.1016 50.9273 68.7922 49.6177 68.1506 47.974V46.1131C69.871 46.1487 71.4862 46.3964 72.9131 46.8062ZM73.6049 46.1148C74.5 46.4 75.3235 46.749 76.0558 47.1517C76.9622 47.6503 77.7452 48.2419 78.3463 48.9086C77.2932 45.2835 74.4362 42.4262 70.8111 41.3734C71.4777 41.9746 72.0693 42.7574 72.5679 43.6638C72.9704 44.396 73.3198 45.2196 73.6049 46.1148ZM68.1506 40.966C69.5112 41.1575 70.8068 42.2508 71.8123 44.0793C72.1039 44.6097 72.3675 45.1957 72.5971 45.8284C71.2293 45.4847 69.7271 45.2821 68.1506 45.2508V40.966Z" fill="#172423"/>
</g>
<defs>
<clipPath id="clip0_24542_16212">
<rect width="130" height="23.8532" fill="white" transform="translate(12.125 40.0734)"/>
</clipPath>
</defs>
</svg>
