<svg width="154" height="104" viewBox="0 0 154 104" fill="none" xmlns="http://www.w3.org/2000/svg">
<g clip-path="url(#clip0_24542_16167)">
<path d="M103.875 33C103.875 33.3978 103.717 33.7794 103.436 34.0607C103.154 34.342 102.773 34.5 102.375 34.5C101.977 34.5 101.596 34.342 101.314 34.0607C101.033 33.7794 100.875 33.3978 100.875 33C100.875 32.6022 101.033 32.2206 101.314 31.9393C101.596 31.658 101.977 31.5 102.375 31.5C102.773 31.5 103.154 31.658 103.436 31.9393C103.717 32.2206 103.875 32.6022 103.875 33Z" fill="#172423"/>
<path fill-rule="evenodd" clip-rule="evenodd" d="M63.625 72.294C56.031 72.294 49.875 66.138 49.875 58.544V32.5H54.875V58.544C54.875 60.8646 55.7969 63.0902 57.4378 64.7312C59.0788 66.3721 61.3044 67.294 63.625 67.294C68.518 67.294 72.375 63.523 72.375 58.75H77.375V66.25C77.375 66.5815 77.5067 66.8995 77.7411 67.1339C77.9755 67.3683 78.2935 67.5 78.625 67.5C78.9565 67.5 79.2745 67.3683 79.5089 67.1339C79.7433 66.8995 79.875 66.5815 79.875 66.25V57.375C78.9668 57.5604 78.0288 57.5414 77.1288 57.3196C76.2289 57.0977 75.3896 56.6784 74.6717 56.0921C73.9537 55.5058 73.3752 54.7672 72.978 53.9297C72.5808 53.0922 72.3748 52.1769 72.375 51.25V38.75C72.375 37.0924 73.0335 35.5027 74.2056 34.3306C75.3777 33.1585 76.9674 32.5 78.625 32.5C80.2826 32.5 81.8723 33.1585 83.0444 34.3306C84.2165 35.5027 84.875 37.0924 84.875 38.75V66.25C84.875 66.5815 85.0067 66.8995 85.2411 67.1339C85.4755 67.3683 85.7935 67.5 86.125 67.5C86.4565 67.5 86.7745 67.3683 87.0089 67.1339C87.2433 66.8995 87.375 66.5815 87.375 66.25V38.75C87.375 37.0924 88.0335 35.5027 89.2056 34.3306C90.3777 33.1585 91.9674 32.5 93.625 32.5C95.2826 32.5 96.8723 33.1585 98.0444 34.3306C99.2165 35.5027 99.875 37.0924 99.875 38.75V66.25C99.875 67.4107 99.5518 68.5485 98.9416 69.5358C98.3314 70.5232 97.4582 71.3211 96.4201 71.8402C95.3819 72.3593 94.2197 72.579 93.0637 72.4747C91.9077 72.3705 90.8036 71.9464 89.875 71.25C88.7941 72.0632 87.4776 72.502 86.125 72.5C84.7724 72.502 83.4559 72.0632 82.375 71.25C81.6228 71.8141 80.753 72.2012 79.8304 72.3826C78.9078 72.564 77.9562 72.5349 77.0464 72.2975C76.1366 72.0601 75.2921 71.6205 74.5758 71.0115C73.8594 70.4025 73.2897 69.6397 72.909 68.78C70.453 70.977 67.186 72.294 63.625 72.294ZM93.625 67.5C92.935 67.5 92.375 66.94 92.375 66.25V38.75C92.375 38.4185 92.5067 38.1005 92.7411 37.8661C92.9755 37.6317 93.2935 37.5 93.625 37.5C93.9565 37.5 94.2745 37.6317 94.5089 37.8661C94.7433 38.1005 94.875 38.4185 94.875 38.75V66.25C94.875 66.94 94.315 67.5 93.625 67.5ZM79.875 51.25C79.875 51.5815 79.7433 51.8995 79.5089 52.1339C79.2745 52.3683 78.9565 52.5 78.625 52.5C78.2935 52.5 77.9755 52.3683 77.7411 52.1339C77.5067 51.8995 77.375 51.5815 77.375 51.25V38.75C77.375 38.4185 77.5067 38.1005 77.7411 37.8661C77.9755 37.6317 78.2935 37.5 78.625 37.5C78.9565 37.5 79.2745 37.6317 79.5089 37.8661C79.7433 38.1005 79.875 38.4185 79.875 38.75V51.25Z" fill="#172423"/>
<path fill-rule="evenodd" clip-rule="evenodd" d="M57.375 58.75C57.375 60.4076 58.0335 61.9973 59.2056 63.1694C60.3777 64.3415 61.9674 65 63.625 65C65.2826 65 66.8723 64.3415 68.0444 63.1694C69.2165 61.9973 69.875 60.4076 69.875 58.75V38.75C69.875 37.0924 69.2165 35.5027 68.0444 34.3306C66.8723 33.1585 65.2826 32.5 63.625 32.5C61.9674 32.5 60.3777 33.1585 59.2056 34.3306C58.0335 35.5027 57.375 37.0924 57.375 38.75V58.75ZM63.625 60C62.935 60 62.375 59.44 62.375 58.75V38.75C62.375 38.4185 62.5067 38.1005 62.7411 37.8661C62.9755 37.6317 63.2935 37.5 63.625 37.5C63.9565 37.5 64.2745 37.6317 64.5089 37.8661C64.7433 38.1005 64.875 38.4185 64.875 38.75V58.75C64.875 59.44 64.315 60 63.625 60Z" fill="#172423"/>
</g>
<defs>
<clipPath id="clip0_24542_16167">
<rect width="54" height="41" fill="white" transform="translate(49.875 31.5)"/>
</clipPath>
</defs>
</svg>
