<svg width="155" height="104" viewBox="0 0 155 104" fill="none" xmlns="http://www.w3.org/2000/svg">
<g clip-path="url(#clip0_24542_16226)">
<path d="M104.375 33C104.375 33.3978 104.217 33.7794 103.936 34.0607C103.654 34.342 103.273 34.5 102.875 34.5C102.477 34.5 102.096 34.342 101.814 34.0607C101.533 33.7794 101.375 33.3978 101.375 33C101.375 32.6022 101.533 32.2206 101.814 31.9393C102.096 31.658 102.477 31.5 102.875 31.5C103.273 31.5 103.654 31.658 103.936 31.9393C104.217 32.2206 104.375 32.6022 104.375 33Z" fill="#172423"/>
<path fill-rule="evenodd" clip-rule="evenodd" d="M64.125 72.294C56.531 72.294 50.375 66.138 50.375 58.544V32.5H55.375V58.544C55.375 60.8646 56.2969 63.0902 57.9378 64.7312C59.5788 66.3721 61.8044 67.294 64.125 67.294C69.018 67.294 72.875 63.523 72.875 58.75H77.875V66.25C77.875 66.5815 78.0067 66.8995 78.2411 67.1339C78.4755 67.3683 78.7935 67.5 79.125 67.5C79.4565 67.5 79.7745 67.3683 80.0089 67.1339C80.2433 66.8995 80.375 66.5815 80.375 66.25V57.375C79.4668 57.5604 78.5288 57.5414 77.6288 57.3196C76.7289 57.0977 75.8896 56.6784 75.1717 56.0921C74.4537 55.5058 73.8752 54.7672 73.478 53.9297C73.0808 53.0922 72.8748 52.1769 72.875 51.25V38.75C72.875 37.0924 73.5335 35.5027 74.7056 34.3306C75.8777 33.1585 77.4674 32.5 79.125 32.5C80.7826 32.5 82.3723 33.1585 83.5444 34.3306C84.7165 35.5027 85.375 37.0924 85.375 38.75V66.25C85.375 66.5815 85.5067 66.8995 85.7411 67.1339C85.9755 67.3683 86.2935 67.5 86.625 67.5C86.9565 67.5 87.2745 67.3683 87.5089 67.1339C87.7433 66.8995 87.875 66.5815 87.875 66.25V38.75C87.875 37.0924 88.5335 35.5027 89.7056 34.3306C90.8777 33.1585 92.4674 32.5 94.125 32.5C95.7826 32.5 97.3723 33.1585 98.5444 34.3306C99.7165 35.5027 100.375 37.0924 100.375 38.75V66.25C100.375 67.4107 100.052 68.5485 99.4416 69.5358C98.8314 70.5232 97.9582 71.3211 96.9201 71.8402C95.8819 72.3593 94.7197 72.579 93.5637 72.4747C92.4077 72.3705 91.3036 71.9464 90.375 71.25C89.2941 72.0632 87.9776 72.502 86.625 72.5C85.2724 72.502 83.9559 72.0632 82.875 71.25C82.1228 71.8141 81.253 72.2012 80.3304 72.3826C79.4078 72.564 78.4562 72.5349 77.5464 72.2975C76.6366 72.0601 75.7921 71.6205 75.0758 71.0115C74.3594 70.4025 73.7897 69.6397 73.409 68.78C70.953 70.977 67.686 72.294 64.125 72.294ZM94.125 67.5C93.435 67.5 92.875 66.94 92.875 66.25V38.75C92.875 38.4185 93.0067 38.1005 93.2411 37.8661C93.4755 37.6317 93.7935 37.5 94.125 37.5C94.4565 37.5 94.7745 37.6317 95.0089 37.8661C95.2433 38.1005 95.375 38.4185 95.375 38.75V66.25C95.375 66.94 94.815 67.5 94.125 67.5ZM80.375 51.25C80.375 51.5815 80.2433 51.8995 80.0089 52.1339C79.7745 52.3683 79.4565 52.5 79.125 52.5C78.7935 52.5 78.4755 52.3683 78.2411 52.1339C78.0067 51.8995 77.875 51.5815 77.875 51.25V38.75C77.875 38.4185 78.0067 38.1005 78.2411 37.8661C78.4755 37.6317 78.7935 37.5 79.125 37.5C79.4565 37.5 79.7745 37.6317 80.0089 37.8661C80.2433 38.1005 80.375 38.4185 80.375 38.75V51.25Z" fill="#172423"/>
<path fill-rule="evenodd" clip-rule="evenodd" d="M57.875 58.75C57.875 60.4076 58.5335 61.9973 59.7056 63.1694C60.8777 64.3415 62.4674 65 64.125 65C65.7826 65 67.3723 64.3415 68.5444 63.1694C69.7165 61.9973 70.375 60.4076 70.375 58.75V38.75C70.375 37.0924 69.7165 35.5027 68.5444 34.3306C67.3723 33.1585 65.7826 32.5 64.125 32.5C62.4674 32.5 60.8777 33.1585 59.7056 34.3306C58.5335 35.5027 57.875 37.0924 57.875 38.75V58.75ZM64.125 60C63.435 60 62.875 59.44 62.875 58.75V38.75C62.875 38.4185 63.0067 38.1005 63.2411 37.8661C63.4755 37.6317 63.7935 37.5 64.125 37.5C64.4565 37.5 64.7745 37.6317 65.0089 37.8661C65.2433 38.1005 65.375 38.4185 65.375 38.75V58.75C65.375 59.44 64.815 60 64.125 60Z" fill="#172423"/>
</g>
<defs>
<clipPath id="clip0_24542_16226">
<rect width="54" height="41" fill="white" transform="translate(50.375 31.5)"/>
</clipPath>
</defs>
</svg>
